<svg width="155" height="31" viewBox="0 0 155 31" fill="none" xmlns="http://www.w3.org/2000/svg">
<path d="M3.56641 1.5625H9.15234L15.5 21.3477L21.8477 1.5625H27.4336L17.7656 30H13.2344L3.56641 1.5625ZM0.167969 1.5625H5.94922L7.02344 23.3594V30H0.167969V1.5625ZM25.0508 1.5625H30.8516V30H23.9766V23.3594L25.0508 1.5625ZM45.168 30.3906C43.4492 30.3906 41.9128 30.1237 40.5586 29.5898C39.2044 29.043 38.0586 28.2943 37.1211 27.3438C36.1966 26.3932 35.487 25.2995 34.9922 24.0625C34.5104 22.8255 34.2695 21.5169 34.2695 20.1367V19.3945C34.2695 17.8451 34.4844 16.4128 34.9141 15.0977C35.3438 13.7695 35.9818 12.6107 36.8281 11.6211C37.6745 10.6315 38.7357 9.86328 40.0117 9.31641C41.2878 8.75651 42.7721 8.47656 44.4648 8.47656C45.9622 8.47656 47.3034 8.71745 48.4883 9.19922C49.6732 9.68099 50.6758 10.3711 51.4961 11.2695C52.3294 12.168 52.9609 13.2552 53.3906 14.5312C53.8333 15.8073 54.0547 17.2396 54.0547 18.8281V21.5039H36.7891V17.3828H47.6289V16.875C47.6419 16.1719 47.5182 15.5729 47.2578 15.0781C47.0104 14.5833 46.6458 14.2057 46.1641 13.9453C45.6823 13.6849 45.0964 13.5547 44.4062 13.5547C43.6901 13.5547 43.0977 13.7109 42.6289 14.0234C42.1732 14.3359 41.8151 14.7656 41.5547 15.3125C41.3073 15.8464 41.1315 16.4648 41.0273 17.168C40.9232 17.8711 40.8711 18.6133 40.8711 19.3945V20.1367C40.8711 20.918 40.9753 21.6276 41.1836 22.2656C41.4049 22.9036 41.7174 23.4505 42.1211 23.9062C42.5378 24.349 43.0326 24.694 43.6055 24.9414C44.1914 25.1888 44.8555 25.3125 45.5977 25.3125C46.4961 25.3125 47.3815 25.1432 48.2539 24.8047C49.1263 24.4661 49.875 23.9062 50.5 23.125L53.4883 26.6797C53.0586 27.2917 52.4466 27.8841 51.6523 28.457C50.8711 29.0299 49.9336 29.4987 48.8398 29.8633C47.7461 30.2148 46.5221 30.3906 45.168 30.3906ZM68.8789 25.1562V0H75.5V30H69.5625L68.8789 25.1562ZM55.9102 19.6875V19.2773C55.9102 17.6758 56.0859 16.2174 56.4375 14.9023C56.7891 13.5742 57.3099 12.4349 58 11.4844C58.6901 10.5208 59.5495 9.77865 60.5781 9.25781C61.6068 8.73698 62.7917 8.47656 64.1328 8.47656C65.3307 8.47656 66.3789 8.75651 67.2773 9.31641C68.1758 9.86328 68.944 10.6315 69.582 11.6211C70.2201 12.6107 70.7409 13.7695 71.1445 15.0977C71.5482 16.4128 71.8542 17.832 72.0625 19.3555V19.8438C71.8542 21.276 71.5482 22.6302 71.1445 23.9062C70.7409 25.1693 70.2201 26.2891 69.582 27.2656C68.944 28.2422 68.1693 29.0104 67.2578 29.5703C66.3594 30.1172 65.3047 30.3906 64.0938 30.3906C62.7526 30.3906 61.5677 30.1237 60.5391 29.5898C59.5234 29.056 58.6706 28.3073 57.9805 27.3438C57.3034 26.3802 56.7891 25.2474 56.4375 23.9453C56.0859 22.6432 55.9102 21.224 55.9102 19.6875ZM62.4922 19.2773V19.6875C62.4922 20.4818 62.5443 21.2174 62.6484 21.8945C62.7526 22.5716 62.9284 23.1706 63.1758 23.6914C63.4362 24.1992 63.7747 24.5964 64.1914 24.8828C64.6211 25.1693 65.1484 25.3125 65.7734 25.3125C66.6198 25.3125 67.3164 25.1107 67.8633 24.707C68.4232 24.3034 68.8333 23.7305 69.0938 22.9883C69.3672 22.2461 69.4844 21.3737 69.4453 20.3711V18.8281C69.4714 17.9688 69.4128 17.2135 69.2695 16.5625C69.1263 15.8984 68.8984 15.3451 68.5859 14.9023C68.2865 14.4596 67.9023 14.1276 67.4336 13.9062C66.9779 13.6719 66.4375 13.5547 65.8125 13.5547C65.2005 13.5547 64.6797 13.6979 64.25 13.9844C63.8333 14.2708 63.4948 14.6745 63.2344 15.1953C62.974 15.7031 62.7852 16.3086 62.668 17.0117C62.5508 17.7018 62.4922 18.457 62.4922 19.2773ZM86.1836 8.86719V30H79.582V8.86719H86.1836ZM79.1914 3.41797C79.1914 2.48047 79.5299 1.71224 80.207 1.11328C80.8841 0.514323 81.763 0.214844 82.8438 0.214844C83.9245 0.214844 84.8034 0.514323 85.4805 1.11328C86.1576 1.71224 86.4961 2.48047 86.4961 3.41797C86.4961 4.35547 86.1576 5.1237 85.4805 5.72266C84.8034 6.32161 83.9245 6.62109 82.8438 6.62109C81.763 6.62109 80.8841 6.32161 80.207 5.72266C79.5299 5.1237 79.1914 4.35547 79.1914 3.41797Z" fill="#142959"/>
<path d="M101.32 24.0625C101.32 23.6979 101.197 23.3854 100.949 23.125C100.715 22.8516 100.298 22.6042 99.6992 22.3828C99.1003 22.1484 98.2604 21.9141 97.1797 21.6797C96.151 21.4583 95.181 21.1654 94.2695 20.8008C93.3711 20.4362 92.5833 19.9935 91.9062 19.4727C91.2292 18.9518 90.6953 18.3333 90.3047 17.6172C89.9271 16.901 89.7383 16.0807 89.7383 15.1562C89.7383 14.2578 89.9271 13.4115 90.3047 12.6172C90.6953 11.8099 91.2617 11.1003 92.0039 10.4883C92.7591 9.86328 93.6771 9.375 94.7578 9.02344C95.8385 8.65885 97.069 8.47656 98.4492 8.47656C100.35 8.47656 101.991 8.76953 103.371 9.35547C104.751 9.92839 105.812 10.7357 106.555 11.7773C107.31 12.806 107.688 13.9974 107.688 15.3516H101.105C101.105 14.8177 101.014 14.362 100.832 13.9844C100.663 13.6068 100.383 13.3203 99.9922 13.125C99.6016 12.9167 99.0807 12.8125 98.4297 12.8125C97.974 12.8125 97.5573 12.8971 97.1797 13.0664C96.8151 13.2357 96.5221 13.4701 96.3008 13.7695C96.0794 14.069 95.9688 14.4206 95.9688 14.8242C95.9688 15.1107 96.0339 15.3711 96.1641 15.6055C96.3073 15.8268 96.5221 16.0352 96.8086 16.2305C97.0951 16.4128 97.4596 16.582 97.9023 16.7383C98.3451 16.8815 98.8789 17.0117 99.5039 17.1289C100.923 17.3893 102.251 17.7604 103.488 18.2422C104.725 18.724 105.728 19.4076 106.496 20.293C107.277 21.1784 107.668 22.3698 107.668 23.8672C107.668 24.8047 107.453 25.6706 107.023 26.4648C106.594 27.2461 105.975 27.9362 105.168 28.5352C104.361 29.1211 103.391 29.5768 102.258 29.9023C101.125 30.2279 99.849 30.3906 98.4297 30.3906C96.4115 30.3906 94.7057 30.0326 93.3125 29.3164C91.9193 28.5872 90.8646 27.6758 90.1484 26.582C89.4453 25.4753 89.0938 24.3555 89.0938 23.2227H95.2266C95.2526 23.8737 95.4089 24.4076 95.6953 24.8242C95.9948 25.2409 96.3919 25.5469 96.8867 25.7422C97.3815 25.9375 97.9544 26.0352 98.6055 26.0352C99.2044 26.0352 99.6992 25.9505 100.09 25.7812C100.493 25.612 100.799 25.3841 101.008 25.0977C101.216 24.7982 101.32 24.4531 101.32 24.0625ZM117.707 8.86719V30H111.105V8.86719H117.707ZM110.715 3.41797C110.715 2.48047 111.053 1.71224 111.73 1.11328C112.408 0.514323 113.286 0.214844 114.367 0.214844C115.448 0.214844 116.327 0.514323 117.004 1.11328C117.681 1.71224 118.02 2.48047 118.02 3.41797C118.02 4.35547 117.681 5.1237 117.004 5.72266C116.327 6.32161 115.448 6.62109 114.367 6.62109C113.286 6.62109 112.408 6.32161 111.73 5.72266C111.053 5.1237 110.715 4.35547 110.715 3.41797ZM132.902 8.86719V13.4375H120.168V8.86719H132.902ZM122.844 3.61328H129.426V23.1055C129.426 23.6654 129.491 24.1016 129.621 24.4141C129.751 24.7135 129.973 24.9284 130.285 25.0586C130.611 25.1758 131.04 25.2344 131.574 25.2344C131.952 25.2344 132.264 25.2279 132.512 25.2148C132.759 25.1888 132.993 25.1562 133.215 25.1172V29.8242C132.655 30.0065 132.069 30.1432 131.457 30.2344C130.845 30.3385 130.194 30.3906 129.504 30.3906C128.098 30.3906 126.893 30.1693 125.891 29.7266C124.901 29.2839 124.146 28.5872 123.625 27.6367C123.104 26.6862 122.844 25.4492 122.844 23.9258V3.61328ZM145.754 30.3906C144.035 30.3906 142.499 30.1237 141.145 29.5898C139.79 29.043 138.645 28.2943 137.707 27.3438C136.783 26.3932 136.073 25.2995 135.578 24.0625C135.096 22.8255 134.855 21.5169 134.855 20.1367V19.3945C134.855 17.8451 135.07 16.4128 135.5 15.0977C135.93 13.7695 136.568 12.6107 137.414 11.6211C138.26 10.6315 139.322 9.86328 140.598 9.31641C141.874 8.75651 143.358 8.47656 145.051 8.47656C146.548 8.47656 147.889 8.71745 149.074 9.19922C150.259 9.68099 151.262 10.3711 152.082 11.2695C152.915 12.168 153.547 13.2552 153.977 14.5312C154.419 15.8073 154.641 17.2396 154.641 18.8281V21.5039H137.375V17.3828H148.215V16.875C148.228 16.1719 148.104 15.5729 147.844 15.0781C147.596 14.5833 147.232 14.2057 146.75 13.9453C146.268 13.6849 145.682 13.5547 144.992 13.5547C144.276 13.5547 143.684 13.7109 143.215 14.0234C142.759 14.3359 142.401 14.7656 142.141 15.3125C141.893 15.8464 141.717 16.4648 141.613 17.168C141.509 17.8711 141.457 18.6133 141.457 19.3945V20.1367C141.457 20.918 141.561 21.6276 141.77 22.2656C141.991 22.9036 142.303 23.4505 142.707 23.9062C143.124 24.349 143.618 24.694 144.191 24.9414C144.777 25.1888 145.441 25.3125 146.184 25.3125C147.082 25.3125 147.967 25.1432 148.84 24.8047C149.712 24.4661 150.461 23.9062 151.086 23.125L154.074 26.6797C153.645 27.2917 153.033 27.8841 152.238 28.457C151.457 29.0299 150.52 29.4987 149.426 29.8633C148.332 30.2148 147.108 30.3906 145.754 30.3906Z" fill="#34C9B6"/>
</svg>
